<svg id="visual" viewBox="0 0 2000 5000" width="2000" height="5000" xmlns="http://www.w3.org/2000/svg" xmlns:xlink="http://www.w3.org/1999/xlink" version="1.1"><rect x="0" y="0" width="2000" height="5000" fill="#06141f"></rect><g fill="#6623a6"><circle r="173" cx="500" cy="3641"></circle><circle r="65" cx="1484" cy="4973"></circle><circle r="168" cx="1781" cy="4676"></circle><circle r="106" cx="1278" cy="2671"></circle><circle r="66" cx="113" cy="3494"></circle><circle r="79" cx="661" cy="1081"></circle><circle r="153" cx="1146" cy="4440"></circle><circle r="92" cx="1568" cy="219"></circle><circle r="137" cx="836" cy="4147"></circle><circle r="66" cx="799" cy="3035"></circle><circle r="77" cx="1696" cy="2430"></circle><circle r="125" cx="1032" cy="1100"></circle><circle r="139" cx="203" cy="2391"></circle><circle r="97" cx="375" cy="4097"></circle><circle r="67" cx="1009" cy="1892"></circle><circle r="154" cx="1139" cy="150"></circle><circle r="121" cx="1874" cy="1097"></circle><circle r="163" cx="1436" cy="4031"></circle><circle r="104" cx="61" cy="4516"></circle><circle r="69" cx="76" cy="1630"></circle><circle r="128" cx="93" cy="269"></circle><circle r="93" cx="1600" cy="3551"></circle><circle r="134" cx="737" cy="527"></circle><circle r="97" cx="203" cy="3122"></circle><circle r="114" cx="34" cy="1250"></circle><circle r="165" cx="1588" cy="2086"></circle><circle r="66" cx="1194" cy="3550"></circle><circle r="93" cx="655" cy="4494"></circle><circle r="92" cx="535" cy="2639"></circle><circle r="79" cx="1040" cy="1476"></circle><circle r="135" cx="660" cy="4890"></circle><circle r="75" cx="695" cy="2119"></circle><circle r="84" cx="1355" cy="501"></circle><circle r="158" cx="1314" cy="887"></circle><circle r="161" cx="1944" cy="417"></circle><circle r="149" cx="964" cy="2521"></circle><circle r="162" cx="1870" cy="3129"></circle><circle r="169" cx="43" cy="808"></circle><circle r="148" cx="628" cy="1461"></circle><circle r="126" cx="1854" cy="4177"></circle><circle r="94" cx="1465" cy="1252"></circle><circle r="87" cx="1556" cy="4370"></circle><circle r="67" cx="376" cy="661"></circle><circle r="74" cx="24" cy="2700"></circle><circle r="94" cx="760" cy="137"></circle><circle r="141" cx="415" cy="1853"></circle><circle r="83" cx="1915" cy="1559"></circle><circle r="104" cx="1868" cy="6"></circle><circle r="144" cx="1342" cy="1702"></circle><circle r="131" cx="1168" cy="3028"></circle><circle r="125" cx="6" cy="4013"></circle><circle r="84" cx="124" cy="4933"></circle><circle r="137" cx="1028" cy="4801"></circle><circle r="84" cx="1674" cy="2811"></circle></g></svg>