<svg id="visual" viewBox="0 0 1920 4000" width="1920" height="4000" xmlns="http://www.w3.org/2000/svg" xmlns:xlink="http://www.w3.org/1999/xlink" version="1.1"><rect x="0" y="0" width="1920" height="4000" fill="#094573"></rect><path d="M0 2571L45.7 2603.3C91.3 2635.7 182.7 2700.3 274.2 2713.8C365.7 2727.3 457.3 2689.7 548.8 2629.2C640.3 2568.7 731.7 2485.3 823 2528.3C914.3 2571.3 1005.7 2740.7 1097 2815.2C1188.3 2889.7 1279.7 2869.3 1371.2 2785.3C1462.7 2701.3 1554.3 2553.7 1645.8 2488.2C1737.3 2422.7 1828.7 2439.3 1874.3 2447.7L1920 2456L1920 4001L1874.3 4001C1828.7 4001 1737.3 4001 1645.8 4001C1554.3 4001 1462.7 4001 1371.2 4001C1279.7 4001 1188.3 4001 1097 4001C1005.7 4001 914.3 4001 823 4001C731.7 4001 640.3 4001 548.8 4001C457.3 4001 365.7 4001 274.2 4001C182.7 4001 91.3 4001 45.7 4001L0 4001Z" fill="#43b77b"></path><path d="M0 2856L45.7 2848.8C91.3 2841.7 182.7 2827.3 274.2 2789.7C365.7 2752 457.3 2691 548.8 2666.5C640.3 2642 731.7 2654 823 2727.5C914.3 2801 1005.7 2936 1097 3012.3C1188.3 3088.7 1279.7 3106.3 1371.2 3069C1462.7 3031.7 1554.3 2939.3 1645.8 2860.7C1737.3 2782 1828.7 2717 1874.3 2684.5L1920 2652L1920 4001L1874.3 4001C1828.7 4001 1737.3 4001 1645.8 4001C1554.3 4001 1462.7 4001 1371.2 4001C1279.7 4001 1188.3 4001 1097 4001C1005.7 4001 914.3 4001 823 4001C731.7 4001 640.3 4001 548.8 4001C457.3 4001 365.7 4001 274.2 4001C182.7 4001 91.3 4001 45.7 4001L0 4001Z" fill="#00b1c8"></path><path d="M0 3000L45.7 3023.3C91.3 3046.7 182.7 3093.3 274.2 3132.7C365.7 3172 457.3 3204 548.8 3178.7C640.3 3153.3 731.7 3070.7 823 3017.8C914.3 2965 1005.7 2942 1097 2972C1188.3 3002 1279.7 3085 1371.2 3095.5C1462.7 3106 1554.3 3044 1645.8 3067.2C1737.3 3090.3 1828.7 3198.7 1874.3 3252.8L1920 3307L1920 4001L1874.3 4001C1828.7 4001 1737.3 4001 1645.8 4001C1554.3 4001 1462.7 4001 1371.2 4001C1279.7 4001 1188.3 4001 1097 4001C1005.7 4001 914.3 4001 823 4001C731.7 4001 640.3 4001 548.8 4001C457.3 4001 365.7 4001 274.2 4001C182.7 4001 91.3 4001 45.7 4001L0 4001Z" fill="#009bee"></path><path d="M0 3611L45.7 3610.7C91.3 3610.3 182.7 3609.7 274.2 3559C365.7 3508.3 457.3 3407.7 548.8 3358.2C640.3 3308.7 731.7 3310.3 823 3310.7C914.3 3311 1005.7 3310 1097 3352C1188.3 3394 1279.7 3479 1371.2 3523.2C1462.7 3567.3 1554.3 3570.7 1645.8 3574C1737.3 3577.3 1828.7 3580.7 1874.3 3582.3L1920 3584L1920 4001L1874.3 4001C1828.7 4001 1737.3 4001 1645.8 4001C1554.3 4001 1462.7 4001 1371.2 4001C1279.7 4001 1188.3 4001 1097 4001C1005.7 4001 914.3 4001 823 4001C731.7 4001 640.3 4001 548.8 4001C457.3 4001 365.7 4001 274.2 4001C182.7 4001 91.3 4001 45.7 4001L0 4001Z" fill="#5b73ee"></path><path d="M0 3822L45.7 3782.7C91.3 3743.3 182.7 3664.7 274.2 3661.3C365.7 3658 457.3 3730 548.8 3727.3C640.3 3724.7 731.7 3647.3 823 3612.2C914.3 3577 1005.7 3584 1097 3591C1188.3 3598 1279.7 3605 1371.2 3589.8C1462.7 3574.7 1554.3 3537.3 1645.8 3533.7C1737.3 3530 1828.7 3560 1874.3 3575L1920 3590L1920 4001L1874.3 4001C1828.7 4001 1737.3 4001 1645.8 4001C1554.3 4001 1462.7 4001 1371.2 4001C1279.7 4001 1188.3 4001 1097 4001C1005.7 4001 914.3 4001 823 4001C731.7 4001 640.3 4001 548.8 4001C457.3 4001 365.7 4001 274.2 4001C182.7 4001 91.3 4001 45.7 4001L0 4001Z" fill="#a924c7"></path></svg>