<svg id="visual" viewBox="0 0 3000 5000" width="3000" height="5000" xmlns="http://www.w3.org/2000/svg" xmlns:xlink="http://www.w3.org/1999/xlink" version="1.1"><rect x="0" y="0" width="3000" height="5000" fill="#06141f"></rect><g fill="#3a135f"><circle r="82" cx="1216" cy="790"></circle><circle r="31" cx="2790" cy="1297"></circle><circle r="36" cx="293" cy="3360"></circle><circle r="66" cx="1478" cy="1650"></circle><circle r="66" cx="2450" cy="926"></circle><circle r="64" cx="2938" cy="2988"></circle><circle r="60" cx="1370" cy="984"></circle><circle r="49" cx="1325" cy="163"></circle><circle r="55" cx="701" cy="3731"></circle><circle r="38" cx="878" cy="4334"></circle><circle r="49" cx="1934" cy="4467"></circle><circle r="74" cx="2694" cy="927"></circle><circle r="48" cx="2730" cy="4460"></circle><circle r="49" cx="1909" cy="1101"></circle><circle r="64" cx="2383" cy="10"></circle><circle r="55" cx="2464" cy="1397"></circle><circle r="80" cx="427" cy="13"></circle><circle r="52" cx="2651" cy="760"></circle><circle r="52" cx="1578" cy="31"></circle><circle r="73" cx="2638" cy="2011"></circle><circle r="61" cx="141" cy="1026"></circle><circle r="72" cx="1684" cy="3031"></circle><circle r="76" cx="1559" cy="775"></circle><circle r="48" cx="1264" cy="1122"></circle><circle r="63" cx="1728" cy="4862"></circle><circle r="31" cx="2827" cy="1747"></circle><circle r="60" cx="756" cy="1124"></circle><circle r="79" cx="1046" cy="3419"></circle><circle r="46" cx="907" cy="1841"></circle><circle r="46" cx="1553" cy="4125"></circle><circle r="39" cx="502" cy="1389"></circle><circle r="62" cx="2143" cy="1579"></circle><circle r="36" cx="202" cy="2566"></circle><circle r="32" cx="2548" cy="3431"></circle><circle r="69" cx="707" cy="909"></circle><circle r="64" cx="1969" cy="2319"></circle><circle r="39" cx="770" cy="4118"></circle><circle r="44" cx="2486" cy="2733"></circle><circle r="33" cx="489" cy="1153"></circle><circle r="53" cx="435" cy="4434"></circle><circle r="30" cx="1312" cy="4829"></circle><circle r="77" cx="211" cy="1834"></circle><circle r="40" cx="425" cy="3818"></circle><circle r="78" cx="904" cy="732"></circle><circle r="33" cx="1984" cy="1251"></circle><circle r="73" cx="1820" cy="1342"></circle><circle r="62" cx="2076" cy="2896"></circle><circle r="77" cx="1792" cy="4655"></circle><circle r="51" cx="2022" cy="702"></circle><circle r="30" cx="2883" cy="2740"></circle><circle r="51" cx="605" cy="3912"></circle><circle r="41" cx="2826" cy="229"></circle><circle r="48" cx="710" cy="238"></circle><circle r="74" cx="194" cy="711"></circle><circle r="62" cx="2337" cy="4988"></circle><circle r="59" cx="2131" cy="2633"></circle><circle r="45" cx="1790" cy="498"></circle><circle r="57" cx="1534" cy="2660"></circle><circle r="45" cx="1906" cy="59"></circle><circle r="64" cx="1147" cy="3089"></circle><circle r="65" cx="1192" cy="1878"></circle><circle r="77" cx="2398" cy="3827"></circle><circle r="40" cx="2472" cy="1603"></circle><circle r="47" cx="1304" cy="4088"></circle><circle r="58" cx="907" cy="1283"></circle><circle r="72" cx="1305" cy="3598"></circle><circle r="73" cx="656" cy="2064"></circle><circle r="80" cx="2870" cy="3764"></circle><circle r="35" cx="1990" cy="1814"></circle><circle r="38" cx="1960" cy="912"></circle><circle r="46" cx="879" cy="96"></circle><circle r="42" cx="974" cy="4026"></circle><circle r="56" cx="715" cy="1349"></circle><circle r="50" cx="2217" cy="1006"></circle><circle r="57" cx="2369" cy="2969"></circle><circle r="32" cx="2764" cy="3468"></circle><circle r="50" cx="1289" cy="4391"></circle><circle r="51" cx="1684" cy="1674"></circle><circle r="59" cx="141" cy="361"></circle><circle r="32" cx="312" cy="147"></circle><circle r="39" cx="129" cy="4561"></circle><circle r="60" cx="2150" cy="2441"></circle><circle r="56" cx="2401" cy="522"></circle><circle r="77" cx="2084" cy="29"></circle><circle r="55" cx="479" cy="1605"></circle><circle r="30" cx="511" cy="2190"></circle><circle r="70" cx="2629" cy="35"></circle><circle r="40" cx="862" cy="4814"></circle><circle r="77" cx="10" cy="2689"></circle><circle r="49" cx="1301" cy="3258"></circle><circle r="54" cx="1864" cy="1601"></circle><circle r="61" cx="2954" cy="2367"></circle><circle r="45" cx="550" cy="438"></circle><circle r="50" cx="1970" cy="1446"></circle><circle r="56" cx="2119" cy="538"></circle><circle r="67" cx="663" cy="3555"></circle><circle r="57" cx="1336" cy="2818"></circle><circle r="79" cx="2856" cy="535"></circle><circle r="79" cx="532" cy="2486"></circle><circle r="75" cx="535" cy="2849"></circle><circle r="65" cx="2143" cy="4934"></circle><circle r="64" cx="26" cy="4877"></circle><circle r="77" cx="221" cy="4070"></circle><circle r="42" cx="2274" cy="3124"></circle><circle r="45" cx="82" cy="1263"></circle><circle r="36" cx="2446" cy="2061"></circle><circle r="80" cx="758" cy="612"></circle><circle r="32" cx="2606" cy="2857"></circle><circle r="46" cx="3" cy="3730"></circle><circle r="54" cx="2161" cy="3347"></circle><circle r="40" cx="879" cy="3410"></circle><circle r="62" cx="1790" cy="2803"></circle><circle r="58" cx="1604" cy="3394"></circle><circle r="46" cx="338" cy="2074"></circle><circle r="79" cx="2387" cy="2515"></circle><circle r="38" cx="1249" cy="383"></circle><circle r="34" cx="1954" cy="3668"></circle><circle r="40" cx="258" cy="1320"></circle><circle r="56" cx="1779" cy="2100"></circle><circle r="51" cx="1557" cy="1408"></circle><circle r="76" cx="571" cy="4935"></circle><circle r="44" cx="2113" cy="3890"></circle><circle r="52" cx="1501" cy="517"></circle><circle r="79" cx="2818" cy="4192"></circle><circle r="62" cx="1154" cy="3832"></circle><circle r="32" cx="125" cy="2324"></circle><circle r="46" cx="2055" cy="4244"></circle><circle r="44" cx="2338" cy="279"></circle><circle r="65" cx="1553" cy="1097"></circle><circle r="37" cx="1042" cy="4270"></circle><circle r="63" cx="899" cy="3811"></circle><circle r="38" cx="1596" cy="2017"></circle><circle r="68" cx="2926" cy="3368"></circle><circle r="44" cx="2868" cy="2092"></circle><circle r="66" cx="2260" cy="3612"></circle><circle r="32" cx="1453" cy="4547"></circle><circle r="66" cx="1469" cy="2238"></circle><circle r="72" cx="2345" cy="1764"></circle><circle r="41" cx="542" cy="773"></circle><circle r="39" cx="777" cy="2810"></circle><circle r="33" cx="2607" cy="4922"></circle><circle r="32" cx="2244" cy="1345"></circle><circle r="73" cx="2653" cy="478"></circle><circle r="76" cx="450" cy="4231"></circle><circle r="38" cx="2550" cy="4312"></circle><circle r="36" cx="334" cy="2963"></circle><circle r="44" cx="912" cy="2957"></circle><circle r="38" cx="2139" cy="4069"></circle><circle r="44" cx="149" cy="3159"></circle><circle r="53" cx="1462" cy="1895"></circle><circle r="42" cx="849" cy="1668"></circle><circle r="61" cx="792" cy="430"></circle><circle r="52" cx="157" cy="3586"></circle><circle r="42" cx="2434" cy="3172"></circle><circle r="47" cx="2064" cy="4647"></circle><circle r="54" cx="2238" cy="773"></circle><circle r="39" cx="1098" cy="4596"></circle><circle r="68" cx="1515" cy="3035"></circle><circle r="44" cx="2510" cy="2338"></circle><circle r="73" cx="308" cy="4866"></circle><circle r="62" cx="262" cy="4315"></circle><circle r="63" cx="1064" cy="2823"></circle><circle r="46" cx="2631" cy="4081"></circle></g></svg>