<svg id="visual" viewBox="0 0 1920 4000" width="1920" height="4000" xmlns="http://www.w3.org/2000/svg" xmlns:xlink="http://www.w3.org/1999/xlink" version="1.1"><path d="M0 801L175 1081L349 561L524 1041L698 1001L873 801L1047 921L1222 761L1396 1081L1571 1121L1745 921L1920 1041L1920 0L1745 0L1571 0L1396 0L1222 0L1047 0L873 0L698 0L524 0L349 0L175 0L0 0Z" fill="#471265"></path><path d="M0 1241L175 1641L349 1241L524 1761L698 1681L873 1521L1047 1561L1222 1201L1396 1681L1571 1601L1745 1361L1920 1521L1920 1039L1745 919L1571 1119L1396 1079L1222 759L1047 919L873 799L698 999L524 1039L349 559L175 1079L0 799Z" fill="#0c62a3"></path><path d="M0 1641L175 1921L349 1641L524 2001L698 1961L873 1761L1047 1881L1222 1601L1396 2041L1571 1921L1745 1601L1920 1801L1920 1519L1745 1359L1571 1599L1396 1679L1222 1199L1047 1559L873 1519L698 1679L524 1759L349 1239L175 1639L0 1239Z" fill="#00a0b7"></path><path d="M0 2561L175 2681L349 2761L524 2641L698 2681L873 2721L1047 2561L1222 2721L1396 2721L1571 2681L1745 2561L1920 2721L1920 1799L1745 1599L1571 1919L1396 2039L1222 1599L1047 1879L873 1759L698 1959L524 1999L349 1639L175 1919L0 1639Z" fill="#73c9af"></path><path d="M0 2921L175 3001L349 3001L524 2961L698 3001L873 2961L1047 2881L1222 3081L1396 3041L1571 2921L1745 2841L1920 2921L1920 2719L1745 2559L1571 2679L1396 2719L1222 2719L1047 2559L873 2719L698 2679L524 2639L349 2759L175 2679L0 2559Z" fill="#73c9af"></path><path d="M0 3321L175 3401L349 3401L524 3321L698 3321L873 3481L1047 3321L1222 3361L1396 3521L1571 3321L1745 3281L1920 3201L1920 2919L1745 2839L1571 2919L1396 3039L1222 3079L1047 2879L873 2959L698 2999L524 2959L349 2999L175 2999L0 2919Z" fill="#00a0b7"></path><path d="M0 3761L175 3761L349 3761L524 3721L698 3801L873 3801L1047 3721L1222 3761L1396 3761L1571 3681L1745 3681L1920 3681L1920 3199L1745 3279L1571 3319L1396 3519L1222 3359L1047 3319L873 3479L698 3319L524 3319L349 3399L175 3399L0 3319Z" fill="#0c62a3"></path><path d="M0 4001L175 4001L349 4001L524 4001L698 4001L873 4001L1047 4001L1222 4001L1396 4001L1571 4001L1745 4001L1920 4001L1920 3679L1745 3679L1571 3679L1396 3759L1222 3759L1047 3719L873 3799L698 3799L524 3719L349 3759L175 3759L0 3759Z" fill="#471265"></path></svg>