<svg id="visual" viewBox="0 0 2000 6000" width="2000" height="6000" xmlns="http://www.w3.org/2000/svg" xmlns:xlink="http://www.w3.org/1999/xlink" version="1.1"><rect x="0" y="0" width="2000" height="6000" fill="#001220"></rect><g fill="none" stroke="#d7596e" stroke-width="2"><circle r="137" cx="826" cy="1437"></circle><circle r="7" cx="1823" cy="4260"></circle><circle r="81" cx="493" cy="932"></circle><circle r="39" cx="1904" cy="5797"></circle><circle r="116" cx="1650" cy="4736"></circle><circle r="89" cx="948" cy="3895"></circle><circle r="121" cx="628" cy="4110"></circle><circle r="84" cx="472" cy="2745"></circle><circle r="102" cx="1911" cy="1008"></circle><circle r="130" cx="269" cy="4140"></circle><circle r="121" cx="4" cy="3046"></circle><circle r="24" cx="394" cy="1504"></circle><circle r="86" cx="1701" cy="1742"></circle><circle r="85" cx="1923" cy="298"></circle><circle r="17" cx="1647" cy="753"></circle><circle r="51" cx="1167" cy="5781"></circle><circle r="118" cx="418" cy="3493"></circle><circle r="122" cx="142" cy="5216"></circle><circle r="127" cx="937" cy="29"></circle><circle r="41" cx="166" cy="4530"></circle><circle r="76" cx="187" cy="1795"></circle><circle r="89" cx="786" cy="3550"></circle><circle r="44" cx="764" cy="5563"></circle><circle r="76" cx="101" cy="895"></circle><circle r="82" cx="772" cy="2030"></circle><circle r="98" cx="365" cy="2142"></circle><circle r="34" cx="1819" cy="3016"></circle><circle r="122" cx="44" cy="3405"></circle><circle r="104" cx="460" cy="302"></circle><circle r="79" cx="550" cy="5045"></circle><circle r="74" cx="1201" cy="3509"></circle><circle r="53" cx="1205" cy="1194"></circle><circle r="101" cx="1648" cy="5333"></circle><circle r="71" cx="1293" cy="142"></circle><circle r="16" cx="967" cy="703"></circle><circle r="78" cx="1425" cy="3168"></circle><circle r="43" cx="570" cy="1762"></circle><circle r="81" cx="1304" cy="4929"></circle><circle r="20" cx="1142" cy="2098"></circle><circle r="131" cx="1166" cy="1573"></circle><circle r="91" cx="1649" cy="2101"></circle><circle r="81" cx="1689" cy="2587"></circle><circle r="9" cx="496" cy="4493"></circle><circle r="55" cx="1095" cy="4593"></circle><circle r="52" cx="122" cy="2784"></circle><circle r="108" cx="1982" cy="2413"></circle><circle r="82" cx="1784" cy="1270"></circle><circle r="117" cx="298" cy="5998"></circle><circle r="44" cx="700" cy="2514"></circle><circle r="56" cx="1299" cy="668"></circle><circle r="81" cx="757" cy="2833"></circle><circle r="16" cx="1379" cy="2331"></circle><circle r="11" cx="1262" cy="2663"></circle><circle r="94" cx="785" cy="4521"></circle><circle r="110" cx="1631" cy="3898"></circle><circle r="110" cx="1867" cy="3565"></circle><circle r="44" cx="64" cy="1338"></circle></g></svg>